<?xml version="1.0" encoding="utf-8"?>
<!-- Generated by IcoMoon.io -->
<!DOCTYPE svg PUBLIC "-//W3C//DTD SVG 1.1//EN" "http://www.w3.org/Graphics/SVG/1.1/DTD/svg11.dtd">
<svg version="1.1" xmlns="http://www.w3.org/2000/svg" xmlns:xlink="http://www.w3.org/1999/xlink" width="119" height="128" viewBox="0 0 119 128">
<path fill="#020718" d="M100.571 70.857v34.286c0 2.5-2.071 4.571-4.571 4.571h-27.429v-27.429h-18.286v27.429h-27.429c-2.5 0-4.571-2.071-4.571-4.571v-34.286c0-0.143 0.071-0.286 0.071-0.429l41.071-33.857 41.071 33.857c0.071 0.143 0.071 0.286 0.071 0.429zM116.5 65.929l-4.429 5.286c-0.357 0.429-0.929 0.714-1.5 0.786h-0.214c-0.571 0-1.071-0.143-1.5-0.5l-49.429-41.214-49.429 41.214c-0.5 0.357-1.071 0.571-1.714 0.5-0.571-0.071-1.143-0.357-1.5-0.786l-4.429-5.286c-0.786-0.929-0.643-2.429 0.286-3.214l51.357-42.786c3-2.5 7.857-2.5 10.857 0l17.429 14.571v-13.929c0-1.286 1-2.286 2.286-2.286h13.714c1.286 0 2.286 1 2.286 2.286v29.143l15.643 13c0.929 0.786 1.071 2.286 0.286 3.214z"></path>
</svg>
