<?xml version="1.0" encoding="utf-8"?>
<!-- Generated by IcoMoon.io -->
<!DOCTYPE svg PUBLIC "-//W3C//DTD SVG 1.1//EN" "http://www.w3.org/Graphics/SVG/1.1/DTD/svg11.dtd">
<svg version="1.1" xmlns="http://www.w3.org/2000/svg" xmlns:xlink="http://www.w3.org/1999/xlink" width="112" height="128" viewBox="0 0 112 128">
<path fill="#020718" d="M72 48h-40v8h40v-8zM48 32h-16v8h16v-8zM96 28.566v-12.566h-17.602l-22.398-16-22.398 16h-17.602v12.566l-16 11.434v80h112v-80l-16-11.434zM24 24h64v30.602l-32 26.398-32-26.398v-30.602zM8 56l31.504 23.953-31.504 24.047v-48zM16 112l31.75-25.781 8.25 6.281 8.234-6.266 31.766 25.766h-80zM104 104l-31.547-24.008 31.547-23.992v48z"></path>
</svg>
