<?xml version="1.0" standalone="no"?>
<!DOCTYPE svg PUBLIC "-//W3C//DTD SVG 20010904//EN"
 "http://www.w3.org/TR/2001/REC-SVG-20010904/DTD/svg10.dtd">
<svg version="1.0" xmlns="http://www.w3.org/2000/svg"
 width="512.000000pt" height="512.000000pt" viewBox="0 0 512.000000 512.000000"
 preserveAspectRatio="xMidYMid meet">

<g transform="translate(0.000000,512.000000) scale(0.100000,-0.100000)"
fill="#000000" stroke="none">
<path d="M2953 5006 c-170 -33 -339 -149 -428 -295 -18 -31 -46 -92 -61 -136
-25 -70 -28 -95 -28 -205 -1 -177 12 -210 214 -558 l166 -287 49 -11 c199 -44
262 -61 349 -91 138 -48 241 -102 329 -173 l75 -60 347 199 c190 110 371 219
401 242 99 76 177 198 215 335 18 65 21 97 17 194 -7 178 -56 294 -178 424
-183 195 -484 253 -729 140 -30 -13 -55 -23 -56 -22 -1 2 -16 24 -33 49 -73
108 -222 210 -357 244 -88 22 -208 27 -292 11z"/>
<path d="M2080 4674 c-81 -21 -226 -96 -296 -153 -128 -104 -232 -280 -259
-439 -7 -40 -15 -74 -16 -76 -2 -1 -52 -26 -110 -54 -293 -141 -475 -386 -524
-704 -5 -32 -15 -44 -64 -77 -166 -113 -297 -302 -352 -506 -31 -113 -31 -327
-1 -436 73 -268 263 -488 507 -586 59 -24 82 -38 87 -55 4 -13 41 -241 83
-508 42 -267 83 -511 91 -544 53 -204 205 -357 414 -413 59 -17 131 -18 840
-18 709 0 781 1 840 18 222 60 379 227 424 450 8 40 43 255 77 478 l64 406 72
32 c228 103 404 282 458 466 27 93 24 232 -8 323 -27 78 -72 155 -125 214 -32
35 -32 37 -22 83 21 93 23 225 6 323 -17 97 -71 252 -88 252 -19 0 -278 -153
-278 -164 0 -6 9 -34 20 -63 54 -143 25 -340 -71 -475 -12 -16 -20 -30 -18
-32 2 -1 31 -19 65 -39 87 -52 145 -107 178 -167 125 -229 -164 -458 -674
-535 -125 -19 -407 -22 -530 -6 -325 43 -581 150 -686 288 -18 23 -34 48 -36
55 -4 10 -17 9 -64 -6 -112 -36 -248 -19 -347 44 l-48 30 -52 -45 c-203 -179
-512 -168 -708 25 -36 36 -80 90 -97 121 -131 232 -69 536 141 695 70 52 151
91 209 101 l40 6 -9 46 c-15 86 -9 211 16 284 46 137 158 262 300 336 92 47
175 70 288 78 72 5 83 8 77 22 -26 59 -54 152 -54 183 -1 150 88 302 222 377
l55 31 6 88 c4 48 16 123 27 166 11 44 20 83 20 88 0 11 -26 9 -90 -8z m-333
-2992 c7 -4 50 -266 108 -657 52 -358 98 -662 101 -677 l6 -28 -49 6 c-100 12
-178 66 -223 154 -22 42 -186 1109 -173 1121 5 3 26 12 48 19 22 7 67 26 100
41 69 32 66 31 82 21z m674 -250 c30 -11 96 -29 147 -42 l92 -23 0 -524 0
-523 -155 0 -155 0 0 565 c0 311 4 565 8 565 5 0 33 -8 63 -18z m989 -67 c0
-8 -27 -200 -60 -426 -62 -423 -71 -464 -124 -526 -33 -39 -115 -79 -178 -87
-47 -6 -47 -5 -42 22 2 15 36 241 74 502 39 261 72 480 74 485 1 6 54 17 117
26 147 22 139 21 139 4z"/>
</g>
</svg>
