<?xml version="1.0" encoding="utf-8"?>
<!-- Generated by IcoMoon.io -->
<!DOCTYPE svg PUBLIC "-//W3C//DTD SVG 1.1//EN" "http://www.w3.org/Graphics/SVG/1.1/DTD/svg11.dtd">
<svg version="1.1" xmlns="http://www.w3.org/2000/svg" xmlns:xlink="http://www.w3.org/1999/xlink" width="128" height="128" viewBox="0 0 128 128">
<path fill="#020718" d="M110.699 28.507c-1.019-1.168-2.485-1.84-4.032-1.84h-73.701l-1.040-6.208c-0.427-2.571-2.651-4.459-5.259-4.459h-12c-2.949 0-5.333 2.384-5.333 5.333s2.384 5.333 5.333 5.333h7.483l9.92 59.541c0.043 0.24 0.165 0.437 0.24 0.661 0.085 0.283 0.155 0.549 0.288 0.805 0.171 0.352 0.4 0.651 0.64 0.955 0.165 0.208 0.315 0.416 0.507 0.597 0.309 0.288 0.667 0.491 1.029 0.693 0.203 0.112 0.379 0.261 0.597 0.347 0.619 0.251 1.269 0.4 1.957 0.4 0.005 0 58.672 0 58.672 0 2.949 0 5.333-2.384 5.333-5.333s-2.384-5.333-5.333-5.333h-54.149l-0.885-5.333h60.368c2.656 0 4.907-1.952 5.28-4.576l5.333-37.333c0.219-1.536-0.24-3.088-1.248-4.251zM100.517 37.333l-1.52 10.667h-18.997v-10.667h20.517zM74.667 37.333v10.667h-16v-10.667h16zM74.667 53.333v10.667h-16v-10.667h16zM53.333 37.333v10.667h-16c-0.283 0-0.539 0.080-0.789 0.16l-1.803-10.827h18.592zM37.408 53.333h15.925v10.667h-14.149l-1.776-10.667zM80 64v-10.667h18.229l-1.52 10.667h-16.709z"></path>
<path fill="#020718" d="M53.333 104c0 4.418-3.582 8-8 8s-8-3.582-8-8c0-4.418 3.582-8 8-8s8 3.582 8 8z"></path>
<path fill="#020718" d="M101.333 104c0 4.418-3.582 8-8 8s-8-3.582-8-8c0-4.418 3.582-8 8-8s8 3.582 8 8z"></path>
</svg>
