<?xml version="1.0" encoding="utf-8"?>
<!-- Generated by IcoMoon.io -->
<!DOCTYPE svg PUBLIC "-//W3C//DTD SVG 1.1//EN" "http://www.w3.org/Graphics/SVG/1.1/DTD/svg11.dtd">
<svg version="1.1" xmlns="http://www.w3.org/2000/svg" xmlns:xlink="http://www.w3.org/1999/xlink" width="110" height="128" viewBox="0 0 110 128">
<path fill="#830300" d="M82.286 64c0 0.571-0.214 1.214-0.643 1.643l-22.857 22.857c-0.429 0.429-1.071 0.643-1.643 0.643-1.214 0-2.286-1.071-2.286-2.286v-13.714h-25.143c-1.214 0-2.286-1.071-2.286-2.286v-13.714c0-1.214 1.071-2.286 2.286-2.286h25.143v-13.714c0-1.286 1-2.286 2.286-2.286 0.643 0 1.214 0.286 1.714 0.714l22.786 22.786c0.429 0.429 0.643 1.071 0.643 1.643zM93.714 64c0-21.429-17.429-38.857-38.857-38.857s-38.857 17.429-38.857 38.857 17.429 38.857 38.857 38.857 38.857-17.429 38.857-38.857zM109.714 64c0 30.286-24.571 54.857-54.857 54.857s-54.857-24.571-54.857-54.857 24.571-54.857 54.857-54.857 54.857 24.571 54.857 54.857z"></path>
</svg>
