<?xml version="1.0" encoding="utf-8"?>
<!-- Generated by IcoMoon.io -->
<!DOCTYPE svg PUBLIC "-//W3C//DTD SVG 1.1//EN" "http://www.w3.org/Graphics/SVG/1.1/DTD/svg11.dtd">
<svg version="1.1" xmlns="http://www.w3.org/2000/svg" xmlns:xlink="http://www.w3.org/1999/xlink" width="128" height="128" viewBox="0 0 128 128">
<path fill="#020718" d="M64 5.333q11.958 0 22.813 4.646t18.708 12.5 12.5 18.708 4.646 22.813-4.646 22.813-12.5 18.708-18.708 12.5-22.813 4.646-22.813-4.646-18.708-12.5-12.5-18.708-4.646-22.813 4.646-22.813 12.5-18.708 18.708-12.5 22.813-4.646zM64 16q-9.75 0-18.646 3.813t-15.313 10.229-10.229 15.312-3.813 18.646 3.813 18.646 10.229 15.313 15.313 10.229 18.646 3.813 18.646-3.813 15.313-10.229 10.229-15.313 3.813-18.646-3.813-18.646-10.229-15.313-15.313-10.229-18.646-3.813zM79.083 43.542q2.208 0 3.792 1.563t1.583 3.771-1.583 3.792l-11.333 11.333 11.333 11.292q1.583 1.583 1.583 3.75 0 2.208-1.583 3.771t-3.792 1.563-3.75-1.542l-11.333-11.292-11.292 11.292q-1.542 1.542-3.792 1.542-2.208 0-3.771-1.542t-1.563-3.75q0-2.25 1.542-3.792l11.333-11.292-11.333-11.333q-1.542-1.542-1.542-3.75t1.563-3.792 3.771-1.583 3.792 1.583l11.292 11.333 11.333-11.333q1.583-1.583 3.75-1.583z"></path>
</svg>
