<?xml version="1.0" standalone="no"?>
<!DOCTYPE svg PUBLIC "-//W3C//DTD SVG 20010904//EN"
 "http://www.w3.org/TR/2001/REC-SVG-20010904/DTD/svg10.dtd">
<svg version="1.0" xmlns="http://www.w3.org/2000/svg"
 width="512.000000pt" height="512.000000pt" viewBox="0 0 512.000000 512.000000"
 preserveAspectRatio="xMidYMid meet">
<metadata>
Created by potrace 1.14, written by Peter Selinger 2001-2017
</metadata>
<g transform="translate(0.000000,512.000000) scale(0.100000,-0.100000)"
fill="#000000" stroke="none">
<path d="M2275 4746 c-96 -31 -163 -89 -204 -175 -24 -52 -26 -70 -31 -226
l-5 -170 -217 -346 -218 -346 0 -1557 0 -1557 25 -25 24 -24 913 2 913 3 252
152 c215 131 253 157 262 184 8 23 11 476 11 1559 l0 1527 -157 219 -158 219
-5 165 c-5 151 -7 170 -31 220 -33 70 -89 126 -159 159 l-55 26 -560 2 c-432
2 -569 -1 -600 -11z m1152 -162 c19 -9 46 -33 61 -52 26 -33 27 -42 30 -164
l4 -128 -662 0 -662 0 4 128 c3 122 4 131 30 164 53 70 33 68 626 68 475 0
538 -2 569 -16z m101 -518 c-2 -7 -37 -133 -78 -280 l-75 -266 -777 0 c-428 0
-778 3 -778 6 0 4 77 130 172 280 l172 274 684 0 c570 0 683 -2 680 -14z m211
-231 l71 -100 -117 -56 c-65 -31 -119 -55 -121 -54 -2 2 72 270 84 304 2 8 6
12 8 10 2 -2 35 -49 75 -104z m101 -1684 l0 -1418 -160 -96 -160 -96 2 1441 3
1441 155 73 c85 41 156 74 158 74 1 0 2 -638 2 -1419z m-480 -231 l0 -1440
-800 0 -800 0 0 1440 0 1440 800 0 800 0 0 -1440z"/>
<path d="M2592 4021 c-57 -20 -96 -50 -118 -93 -19 -37 -19 -209 0 -247 35
-67 136 -121 226 -121 90 0 191 54 226 121 19 39 19 210 -1 248 -48 94 -203
137 -333 92z m186 -76 c33 -10 58 -25 68 -40 15 -23 15 -27 0 -50 -16 -25 -96
-55 -146 -55 -50 0 -130 30 -146 55 -15 23 -15 27 0 50 17 26 88 53 142 54 17
1 54 -6 82 -14z"/>
<path d="M2470 2463 c-97 -104 -191 -240 -215 -313 -21 -65 -16 -130 18 -204
91 -198 356 -244 511 -90 47 47 85 125 93 192 8 68 -16 135 -87 241 -55 82
-213 261 -230 261 -5 0 -45 -39 -90 -87z"/>
</g>
</svg>
