<?xml version="1.0" standalone="no"?>
<!DOCTYPE svg PUBLIC "-//W3C//DTD SVG 20010904//EN"
 "http://www.w3.org/TR/2001/REC-SVG-20010904/DTD/svg10.dtd">
<svg version="1.0" xmlns="http://www.w3.org/2000/svg"
 width="200.000000pt" height="200.000000pt" viewBox="0 0 200.000000 200.000000"
 preserveAspectRatio="xMidYMid meet">
<metadata>
Created by potrace 1.14, written by Peter Selinger 2001-2017
</metadata>
<g transform="translate(0.000000,200.000000) scale(0.100000,-0.100000)"
fill="#000000" stroke="none">
<path d="M1485 1934 c-60 -25 -112 -49 -115 -54 -3 -5 -20 -65 -39 -135 l-34
-126 -41 39 c-245 237 -648 170 -796 -132 -17 -34 -33 -78 -37 -99 l-6 -37
487 0 c551 0 501 -9 467 87 l-18 53 40 149 40 150 104 42 c106 42 129 61 112
92 -15 26 -43 21 -164 -29z"/>
<path d="M340 1225 l0 -85 565 0 565 0 0 85 0 85 -565 0 -565 0 0 -85z"/>
<path d="M440 1048 c1 -7 38 -240 84 -518 l82 -505 299 0 300 0 76 475 c43
261 80 494 84 518 l6 42 -465 0 c-366 0 -466 -3 -466 -12z"/>
</g>
</svg>
