<?xml version="1.0" standalone="no"?>
<!DOCTYPE svg PUBLIC "-//W3C//DTD SVG 20010904//EN"
 "http://www.w3.org/TR/2001/REC-SVG-20010904/DTD/svg10.dtd">
<svg version="1.0" xmlns="http://www.w3.org/2000/svg"
 width="204.000000pt" height="298.000000pt" viewBox="0 0 204.000000 298.000000"
 preserveAspectRatio="xMidYMid meet">
<metadata>
Created by potrace 1.14, written by Peter Selinger 2001-2017
</metadata>
<g transform="translate(0.000000,298.000000) scale(0.100000,-0.100000)"
fill="#000000" stroke="none">
<path d="M1437 2951 c-55 -49 -111 -181 -163 -386 -14 -55 -27 -102 -30 -104
-2 -2 -20 9 -39 24 l-36 27 -507 -190 c-279 -105 -542 -202 -584 -217 -54 -19
-78 -33 -78 -44 0 -9 5 -95 10 -191 29 -498 31 -1159 5 -1405 l-7 -60 77 -64
c115 -95 296 -225 399 -286 l92 -55 124 36 c255 73 575 200 893 354 l147 71 0
77 c0 42 5 269 10 505 10 401 3 846 -16 1084 l-7 82 -187 101 -187 101 13 62
c7 34 22 87 32 118 30 84 110 239 124 239 4 0 33 -16 66 -35 66 -40 181 -90
307 -135 l84 -29 31 30 c16 17 30 37 30 44 0 28 -22 61 -48 72 -111 44 -369
150 -424 174 -36 16 -73 29 -82 29 -8 0 -30 -13 -49 -29z m183 -44 c344 -131
360 -138 350 -158 -6 -10 -10 -34 -10 -53 0 -20 -4 -36 -9 -36 -16 0 -283 109
-346 142 -79 40 -82 43 -59 69 l19 22 -27 -17 c-25 -16 -27 -16 -31 1 -4 14
-5 13 -6 -5 -1 -20 -4 -21 -22 -12 -11 7 -23 9 -26 7 -3 -3 7 -11 21 -19 l26
-13 -33 -55 c-56 -94 -89 -180 -132 -340 -33 -125 -45 -156 -60 -159 -40 -7
-44 22 -20 137 50 234 135 462 195 522 22 22 31 21 170 -33z m-412 -457 c23
-14 32 -26 28 -38 -3 -9 -10 -38 -17 -64 -9 -40 -15 -47 -38 -50 l-26 -3 26
-18 c15 -10 55 -20 93 -24 63 -6 78 0 57 23 -11 11 8 104 21 104 13 0 318
-173 318 -181 0 -6 -150 -72 -290 -127 -110 -43 -796 -292 -805 -292 -4 0 -31
20 -59 44 -28 24 -67 54 -87 68 l-37 25 99 43 c55 23 99 47 99 51 0 11 -16 7
-163 -32 l-108 -29 -38 30 c-21 17 -63 41 -93 54 l-56 22 67 23 c65 23 857
347 916 375 41 20 55 19 93 -4z m501 -977 c-1 -373 -4 -745 -8 -828 l-6 -150
-165 -77 c-219 -102 -466 -207 -620 -263 -118 -43 -309 -99 -316 -92 -2 2 1
151 7 332 11 320 6 1219 -6 1280 -6 30 -6 30 80 57 109 35 341 128 720 289
165 71 303 128 308 129 4 0 6 -305 6 -677z m-1544 492 c28 -13 65 -37 83 -52
l33 -28 -10 -75 c-5 -41 -13 -127 -17 -190 l-7 -115 -15 45 c-35 110 -117 321
-149 384 l-35 69 34 -7 c18 -3 56 -17 83 -31z m-54 -211 c17 -49 54 -146 82
-217 45 -112 52 -126 66 -114 9 8 52 42 96 78 44 35 103 85 131 111 l51 48 7
-102 c19 -302 26 -826 15 -1103 -6 -159 -14 -313 -18 -341 l-6 -50 -240 168
-240 167 3 63 c2 35 7 128 12 208 18 277 23 719 11 948 -6 122 -14 230 -17
240 -17 55 20 -28 47 -104z m325 54 c43 -29 80 -58 81 -64 6 -17 -105 -152
-165 -202 l-52 -44 0 44 c1 49 16 224 26 281 3 21 11 37 19 37 7 0 48 -24 91
-52z"/>
<path d="M1153 1701 c-154 -53 -401 -337 -448 -516 -26 -100 -20 -255 15 -400
43 -182 76 -237 183 -306 81 -53 177 -83 235 -75 181 25 359 214 456 484 103
288 104 390 6 624 -35 86 -52 102 -152 147 -115 51 -223 67 -295 42z m51 -7
c11 -4 -1 -17 -46 -46 -95 -62 -153 -115 -239 -221 -165 -203 -204 -345 -160
-576 12 -63 37 -159 56 -213 18 -54 31 -98 29 -98 -3 0 -18 21 -35 47 -77 123
-124 429 -88 579 42 179 199 378 389 494 71 43 71 43 94 34z m241 -52 c70 -35
94 -59 128 -127 62 -124 82 -257 58 -380 -29 -146 -98 -334 -163 -442 -41 -68
-188 -209 -258 -247 -46 -25 -60 -28 -114 -24 -110 9 -210 77 -254 172 -36 75
-65 270 -66 431 -1 138 -1 141 31 206 71 145 290 371 416 430 60 28 144 21
222 -19z"/>
<path d="M1223 1620 c-26 -10 -50 -45 -63 -88 -8 -29 15 -251 38 -359 l8 -37
38 79 c53 111 143 325 150 357 10 42 -15 58 -87 57 -34 0 -72 -4 -84 -9z"/>
<path d="M1422 1560 c-10 -11 -26 -46 -36 -77 -10 -32 -49 -124 -87 -205 -38
-80 -69 -149 -69 -151 0 -3 7 -8 16 -11 10 -4 43 16 92 56 210 170 252 219
218 257 -9 9 -16 32 -16 50 0 43 -14 68 -50 86 -38 20 -46 19 -68 -5z"/>
<path d="M1026 1459 c-33 -35 -56 -69 -56 -82 0 -36 153 -247 179 -247 19 0
19 17 1 125 -10 61 -21 138 -24 173 -12 114 -21 117 -100 31z"/>
<path d="M1554 1287 c-19 -12 -51 -35 -211 -155 -40 -30 -73 -58 -73 -63 0
-15 143 -52 203 -53 51 -1 61 2 77 24 11 14 24 41 30 60 12 41 14 187 2 194
-4 2 -16 -1 -28 -7z"/>
<path d="M872 1265 c-11 -13 -29 -55 -41 -92 -18 -57 -21 -87 -19 -183 3 -109
4 -115 25 -118 27 -4 107 36 199 100 116 79 114 75 52 149 -89 108 -153 169
-175 169 -12 0 -30 -11 -41 -25z"/>
<path d="M1254 1015 c-6 -14 18 -62 87 -176 19 -32 42 -71 51 -88 9 -17 21
-31 26 -31 28 0 109 204 91 227 -6 6 -46 21 -89 32 -44 12 -95 28 -115 36 -43
18 -44 18 -51 0z"/>
<path d="M1006 915 c-155 -101 -176 -120 -176 -155 0 -79 52 -175 111 -205 28
-15 29 -15 47 22 11 21 34 83 52 138 18 55 52 138 76 186 24 47 44 88 44 92 0
18 -35 0 -154 -78z"/>
<path d="M1217 984 c-10 -32 0 -378 12 -406 13 -33 16 -34 59 -8 37 23 92 103
92 135 0 12 -19 48 -41 81 -23 32 -55 91 -71 129 -35 82 -44 94 -51 69z"/>
<path d="M1163 930 c-60 -105 -131 -294 -135 -361 -3 -62 18 -76 88 -61 31 6
59 14 63 17 6 7 23 373 19 425 l-3 35 -32 -55z"/>
</g>
</svg>
