<?xml version="1.0" standalone="no"?>
<!DOCTYPE svg PUBLIC "-//W3C//DTD SVG 20010904//EN"
 "http://www.w3.org/TR/2001/REC-SVG-20010904/DTD/svg10.dtd">
<svg version="1.0" xmlns="http://www.w3.org/2000/svg"
 width="600.000000pt" height="474.000000pt" viewBox="0 0 600.000000 474.000000"
 preserveAspectRatio="xMidYMid meet">
<metadata>
Created by potrace 1.14, written by Peter Selinger 2001-2017
</metadata>
<g transform="translate(0.000000,474.000000) scale(0.100000,-0.100000)"
fill="#000000" stroke="none">
<path d="M5233 4731 c-92 -24 -172 -87 -318 -251 l-105 -118 -143 -61 c-136
-58 -147 -61 -247 -66 -325 -19 -550 -73 -1210 -290 -594 -196 -744 -233
-1050 -260 -513 -46 -614 -61 -785 -117 -196 -64 -402 -167 -559 -281 -168
-122 -190 -137 -236 -154 -29 -11 -111 -73 -234 -177 -178 -150 -190 -163
-218 -224 -147 -323 -166 -685 -56 -1032 39 -122 131 -315 203 -427 330 -506
913 -937 1546 -1142 273 -88 450 -120 709 -128 184 -6 348 10 455 44 103 32
198 100 270 192 24 33 64 70 89 85 79 46 144 132 258 338 226 412 252 483 323
918 40 247 49 291 77 380 49 153 123 266 304 460 185 200 212 232 397 478 218
292 290 429 312 597 4 28 9 58 11 67 3 9 53 42 112 73 59 31 116 65 127 75 37
34 94 50 235 65 201 21 287 55 388 155 79 78 107 138 106 230 0 61 -5 85 -26
126 -51 98 -182 189 -350 244 -55 17 -68 26 -78 51 -18 41 -87 111 -133 133
-44 20 -128 29 -174 17z m134 -196 c12 -14 30 -47 39 -73 l17 -48 91 -28 c122
-37 224 -88 272 -137 34 -35 39 -46 39 -88 0 -102 -120 -191 -285 -211 -202
-25 -246 -33 -294 -54 -28 -13 -64 -34 -81 -48 -38 -31 -300 -170 -307 -162
-4 3 -47 -8 -98 -25 -50 -17 -97 -31 -104 -31 -8 0 -20 37 -34 101 -12 56 -23
104 -26 107 -3 2 -41 -6 -86 -18 -44 -13 -82 -22 -84 -19 -10 9 27 129 58 189
l31 62 190 81 189 81 81 86 c155 165 234 241 267 255 45 20 98 12 125 -20z
m-4337 -1575 c195 -20 409 -75 675 -171 545 -199 761 -353 1054 -757 370 -509
527 -943 482 -1331 -33 -278 -141 -445 -321 -495 -247 -68 -683 -34 -1035 80
-771 252 -1439 837 -1640 1438 -48 144 -66 233 -72 372 -9 180 18 333 90 516
30 78 30 78 168 194 119 99 147 118 196 131 122 32 249 39 403 23z"/>
<path d="M759 2779 c-93 -12 -101 -16 -216 -113 -111 -95 -119 -108 -166 -276
-31 -112 -30 -370 1 -491 98 -375 357 -726 755 -1022 290 -216 658 -392 981
-467 289 -68 642 -79 776 -23 74 30 126 107 157 230 20 81 22 311 4 413 -75
424 -520 1110 -866 1338 -211 139 -670 318 -980 382 -185 39 -309 47 -446 29z
m650 -638 c82 -33 134 -74 190 -148 88 -116 112 -222 71 -302 -74 -146 -295
-146 -564 -1 -97 52 -129 75 -162 117 -76 94 -78 191 -6 266 70 73 153 98 307
93 84 -2 123 -8 164 -25z"/>
<path d="M1163 2010 c-52 -8 -113 -36 -120 -55 -1 -6 6 -24 16 -41 25 -41 204
-138 292 -159 67 -15 136 -19 163 -9 63 24 -63 217 -162 248 -63 19 -126 25
-189 16z"/>
</g>
</svg>
