<?xml version="1.0" encoding="utf-8"?>
<!-- Generated by IcoMoon.io -->
<!DOCTYPE svg PUBLIC "-//W3C//DTD SVG 1.1//EN" "http://www.w3.org/Graphics/SVG/1.1/DTD/svg11.dtd">
<svg version="1.1" xmlns="http://www.w3.org/2000/svg" xmlns:xlink="http://www.w3.org/1999/xlink" width="128" height="128" viewBox="0 0 128 128">
<path fill="#020718" d="M112 124h-96c-6.628 0-12-5.376-12-12v-56c0-6.628 5.372-12 12-12h8l33.972-26.072c-0.152-0.62-0.256-1.26-0.256-1.928 0-4.416 3.584-8 8-8s7.996 3.584 7.996 8c0 1.436-0.408 2.768-1.076 3.936l31.364 24.064h8c6.624 0 12 5.372 12 12v56c0 6.624-5.376 12-12 12zM68.284 98.332h16.124v-3.032h-12.72v-22.752h-3.408v25.784zM45.212 98.332l2.824-7.812h10.832l2.968 7.812h3.888l-10.512-25.78h-3.696l-9.912 25.78h3.608zM21.368 75.576c-0.736 1.136-1.104 2.356-1.104 3.656 0 1.188 0.3 2.256 0.904 3.216s1.52 1.756 2.748 2.408c0.944 0.504 2.596 1.040 4.956 1.608s3.884 0.988 4.576 1.256c1.076 0.416 1.848 0.916 2.324 1.52s0.716 1.304 0.716 2.112c0 0.792-0.244 1.532-0.728 2.208s-1.224 1.208-2.22 1.596c-0.992 0.392-2.136 0.584-3.432 0.584-1.46 0-2.772-0.252-3.94-0.768-1.172-0.508-2.032-1.18-2.584-2.012s-0.912-1.896-1.064-3.188l-3.22 0.28c0.048 1.724 0.52 3.264 1.416 4.628 0.896 1.368 2.128 2.392 3.7 3.072 1.576 0.68 3.524 1.020 5.852 1.020 1.832 0 3.484-0.336 4.952-1.012 1.468-0.672 2.592-1.608 3.376-2.824 0.784-1.212 1.176-2.5 1.176-3.872 0-1.38-0.36-2.596-1.076-3.656-0.716-1.064-1.824-1.936-3.328-2.624-1.036-0.468-2.932-1.016-5.692-1.64-2.764-0.628-4.472-1.244-5.124-1.844-0.668-0.592-1-1.356-1-2.28 0-1.072 0.472-1.98 1.412-2.736s2.436-1.136 4.492-1.136c1.976 0 3.468 0.416 4.476 1.24 1.012 0.828 1.6 2.052 1.776 3.668l3.28-0.248c-0.060-1.512-0.48-2.864-1.26-4.056-0.784-1.192-1.904-2.096-3.36-2.712s-3.136-0.92-5.044-0.92c-1.732 0-3.304 0.292-4.72 0.88-1.424 0.584-2.5 1.44-3.236 2.576zM70.712 22.2c-1.376 1.108-3.096 1.8-4.996 1.8-2.648 0-4.976-1.3-6.432-3.284l-31.284 23.284h72l-29.288-21.8zM107.744 95.3h-15.812v-8.78h14.248v-3.032h-14.248v-7.908h15.22v-3.032h-18.624v25.78h19.22v-3.028zM53.256 75.24c0.416 1.412 1.024 3.2 1.828 5.372l2.716 7.128h-8.796l2.86-7.548c0.588-1.628 1.052-3.28 1.392-4.952z"></path>
</svg>
