<?xml version="1.0" standalone="no"?>
<!DOCTYPE svg PUBLIC "-//W3C//DTD SVG 20010904//EN"
 "http://www.w3.org/TR/2001/REC-SVG-20010904/DTD/svg10.dtd">
<svg version="1.0" xmlns="http://www.w3.org/2000/svg"
 width="957.000000pt" height="720.000000pt" viewBox="0 0 957.000000 720.000000"
 preserveAspectRatio="xMidYMid meet">
<metadata>
Created by potrace 1.14, written by Peter Selinger 2001-2017
</metadata>
<g transform="translate(0.000000,720.000000) scale(0.100000,-0.100000)"
fill="#000000" stroke="none">
<path d="M4325 7186 c-49 -21 -97 -67 -117 -112 l-18 -42 -84 -3 c-75 -4 -88
-7 -128 -35 -107 -78 -120 -221 -27 -313 46 -46 86 -61 169 -61 l70 0 0 -165
c0 -124 -3 -167 -12 -169 -7 -2 -65 -11 -128 -21 -428 -63 -977 -287 -1337
-544 l-56 -41 49 0 c90 0 2924 -29 3203 -33 l275 -4 -30 24 c-113 93 -481 297
-701 389 -233 98 -527 185 -718 214 -44 6 -90 13 -102 16 -23 4 -23 6 -23 169
l0 165 68 0 c106 1 180 46 216 132 41 96 -5 207 -106 259 -27 14 -58 19 -112
19 l-74 0 -11 33 c-33 99 -173 164 -266 123z"/>
<path d="M9105 5584 c-225 -6 -440 -12 -476 -13 l-66 -1 -18 -62 c-60 -219
-157 -487 -242 -668 -56 -118 -261 -487 -331 -594 -61 -94 -164 -195 -232
-227 -136 -65 -320 -65 -535 2 -50 15 -66 25 -70 42 -2 12 -18 94 -35 182 -27
137 -39 179 -90 292 -139 313 -344 620 -580 866 l-92 97 -1923 0 -1923 0 -92
-97 c-121 -127 -219 -249 -316 -391 -1 -2 -46 30 -101 71 -440 332 -890 415
-1256 231 -334 -168 -572 -531 -670 -1024 -41 -203 -52 -329 -52 -570 1 -256
15 -380 71 -600 163 -640 612 -1150 1174 -1334 148 -48 268 -66 439 -66 l146
0 65 -128 c213 -417 550 -804 950 -1091 l85 -61 1476 0 1475 0 75 51 c154 106
249 187 414 353 268 269 442 516 608 858 l61 127 70 16 c236 53 520 301 847
740 171 230 333 493 444 720 93 191 355 808 447 1050 43 116 145 377 226 580
l146 370 86 86 c47 47 122 112 168 143 45 32 82 60 82 62 0 2 -10 3 -22 2 -13
0 -207 -7 -433 -14z m-7790 -644 c105 -29 277 -120 395 -208 156 -117 149
-100 96 -218 -129 -291 -216 -604 -261 -934 -23 -164 -31 -526 -16 -701 16
-183 53 -407 97 -578 19 -74 32 -136 29 -139 -9 -9 -199 26 -266 49 -177 60
-334 162 -484 313 -250 251 -390 549 -445 946 -16 114 -13 414 6 559 47 368
182 675 362 825 54 45 150 92 213 106 62 13 191 4 274 -20z"/>
<path d="M2860 180 l0 -180 1555 0 1555 0 0 180 0 180 -1555 0 -1555 0 0 -180z"/>
</g>
</svg>
