<?xml version="1.0" encoding="utf-8"?>
<!-- Generated by IcoMoon.io -->
<!DOCTYPE svg PUBLIC "-//W3C//DTD SVG 1.1//EN" "http://www.w3.org/Graphics/SVG/1.1/DTD/svg11.dtd">
<svg version="1.1" xmlns="http://www.w3.org/2000/svg" xmlns:xlink="http://www.w3.org/1999/xlink" width="128" height="128" viewBox="0 0 128 128">
<path fill="#EAFF91" d="M104 128h-84c-4.42 0-8-3.584-8-8v-96c0-4.42 3.58-8 8-8v96c0 4.416 3.584 8 8 8h16c4.42 0 8-3.584 8-8v-96h52c4.42 0 8 3.584 8 8v96c0 4.416-3.58 8-8 8zM84 116h8v-8h-8v8zM84 104h8v-8h-8v8zM84 92h8v-8h-8v8zM84 80h8v-8h-8v8zM72 116h8v-8h-8v8zM72 104h8v-8h-8v8zM72 92h8v-8h-8v8zM72 80h8v-8h-8v8zM104 28c0-2.212-1.788-4-4-4h-36c-2.208 0-4 1.788-4 4v16c0 2.208 1.792 4 4 4h36c2.212 0 4-1.792 4-4v-16zM104 72h-8v8h8v-8zM104 84h-8v8h8v-8zM104 96h-8v8h8v-8zM104 108h-8v8h8v-8zM44 116h-16c-2.208 0-4-1.788-4-4v-100c0-2.212 1.792-4 4-4h7.752v-8h4.248v8h4c2.208 0 4 1.788 4 4v100c0 2.212-1.792 4-4 4z"></path>
</svg>
