<?xml version="1.0" standalone="no"?>
<!DOCTYPE svg PUBLIC "-//W3C//DTD SVG 20010904//EN"
 "http://www.w3.org/TR/2001/REC-SVG-20010904/DTD/svg10.dtd">
<svg version="1.0" xmlns="http://www.w3.org/2000/svg"
 width="512.000000pt" height="512.000000pt" viewBox="0 0 512.000000 512.000000"
 preserveAspectRatio="xMidYMid meet">
<metadata>
Created by potrace 1.14, written by Peter Selinger 2001-2017
</metadata>
<g transform="translate(0.000000,512.000000) scale(0.100000,-0.100000)"
fill="#000000" stroke="none">
<path d="M3995 5043 c-159 -20 -378 -78 -590 -156 -116 -43 -125 -44 -265 -50
-219 -9 -320 -48 -446 -172 -62 -61 -160 -192 -151 -201 2 -2 19 1 38 6 50 15
220 12 334 -5 333 -50 735 -220 802 -339 16 -27 16 -67 0 -87 -31 -41 -78 -54
-192 -53 -155 2 -303 35 -717 160 -220 66 -413 114 -463 114 -32 0 -57 -8 -89
-28 -29 -19 -87 -39 -163 -57 -343 -80 -418 -111 -524 -215 -90 -89 -141 -199
-155 -337 l-7 -61 50 25 c101 50 282 54 498 13 467 -90 905 -318 905 -471 0
-50 -50 -95 -116 -105 -135 -20 -306 13 -790 151 -450 129 -573 157 -684 158
l-85 0 -160 -83 c-277 -144 -381 -243 -459 -442 -35 -89 -78 -308 -60 -308 3
0 17 9 30 19 33 26 144 67 222 82 80 15 282 7 382 -16 256 -57 478 -162 583
-274 56 -59 62 -98 22 -129 -89 -70 -346 -60 -905 34 -146 25 -299 47 -341 51
l-76 6 -45 -84 c-93 -174 -176 -398 -233 -632 -148 -599 -72 -1075 219 -1375
28 -29 69 -63 91 -76 337 -198 939 121 1935 1023 364 330 1157 1118 1530 1521
828 895 1194 1486 1149 1855 -13 102 -54 178 -140 260 -155 146 -330 234 -538
270 -76 14 -314 18 -396 8z"/>
</g>
</svg>
