<?xml version="1.0" encoding="utf-8"?>
<!-- Generated by IcoMoon.io -->
<!DOCTYPE svg PUBLIC "-//W3C//DTD SVG 1.1//EN" "http://www.w3.org/Graphics/SVG/1.1/DTD/svg11.dtd">
<svg version="1.1" xmlns="http://www.w3.org/2000/svg" xmlns:xlink="http://www.w3.org/1999/xlink" width="140" height="128" viewBox="0 0 140 128">
<path fill="#EAFF91" d="M33.724 36.62h83.832c8.632 0 8.632-8.952 0.336-8.952h-57.944c-3.32 0-4.976-4.976-4.976-4.976s-2.324-7.3-6.972-7.3h-43.156c-6.304 0-4.648 7.3-4.648 7.3s9.628 81.88 10.292 86.86 5.812 6.448 5.812 6.448l11.284-72.412c0.832-5.308 4.48-6.8 6.14-6.968zM134.632 39.768h-98.252c-2.932 0-5.312 2.376-5.312 5.308l-10.288 65.6c0 2.936 2.38 5.312 5.312 5.312h98.252c2.928 0 5.312-2.376 5.312-5.312l10.288-65.6c0-2.932-2.372-5.308-5.312-5.308z"></path>
</svg>
