<?xml version="1.0" standalone="no"?>
<!DOCTYPE svg PUBLIC "-//W3C//DTD SVG 20010904//EN"
 "http://www.w3.org/TR/2001/REC-SVG-20010904/DTD/svg10.dtd">
<svg version="1.0" xmlns="http://www.w3.org/2000/svg"
 width="400.000000pt" height="400.000000pt" viewBox="0 0 400.000000 400.000000"
 preserveAspectRatio="xMidYMid meet">
<metadata>
Created by potrace 1.14, written by Peter Selinger 2001-2017
</metadata>
<g transform="translate(0.000000,400.000000) scale(0.100000,-0.100000)"
fill="#000000" stroke="none">
<path d="M2860 3493 c-73 -29 -2730 -1188 -2747 -1199 -12 -7 -25 -29 -28 -46
-3 -18 -21 -348 -40 -732 -37 -764 -37 -738 21 -765 16 -7 49 -15 74 -17 119
-14 936 -70 951 -67 10 3 29 29 43 58 50 107 171 150 236 85 16 -16 20 -34 20
-94 0 -47 4 -77 13 -83 7 -6 96 -6 232 -1 424 17 1084 -12 1558 -68 l57 -7 0
33 c0 72 74 119 137 87 32 -17 51 -48 55 -92 2 -21 11 -33 28 -41 34 -16 460
-45 482 -33 9 5 21 25 27 44 10 38 -30 1244 -48 1435 -12 124 -38 204 -123
373 -267 535 -498 854 -760 1050 -102 76 -147 95 -188 80z m141 -142 c114 -76
404 -433 553 -680 79 -131 201 -378 255 -518 l39 -103 -36 0 c-20 0 -86 4
-147 10 -497 43 -2477 170 -2650 170 -91 0 -123 -19 -106 -63 16 -42 13 -75
-9 -97 -27 -27 -74 -26 -100 3 -19 19 -21 30 -15 79 13 117 -11 128 -277 128
-111 0 -198 4 -192 8 15 14 2403 1053 2464 1073 30 10 82 18 116 18 51 1 68
-4 105 -28z m-2546 -1155 c106 -7 200 -18 213 -24 17 -10 22 -21 22 -56 0 -51
29 -99 79 -133 88 -59 215 3 237 116 4 17 14 36 23 41 40 21 2693 -155 2794
-186 9 -3 21 -13 26 -22 16 -30 49 -853 51 -1254 l0 -58 -171 0 c-94 0 -179 4
-189 10 -10 5 -21 22 -25 37 -17 69 -90 123 -166 123 -49 0 -125 -33 -140 -61
-5 -10 -29 -29 -52 -41 -53 -28 -147 -29 -367 -5 -298 32 -478 41 -882 41
l-407 0 -10 25 c-5 14 -12 40 -16 56 -16 86 -95 141 -189 133 -70 -6 -127 -37
-209 -114 -58 -55 -72 -64 -105 -64 -20 0 -221 11 -446 25 -362 21 -411 26
-426 42 -16 16 -16 30 -4 163 25 279 36 649 29 923 -5 205 -4 271 5 282 15 18
67 19 325 1z"/>
<path d="M2578 3126 c-70 -25 -160 -120 -179 -189 -16 -62 -3 -106 45 -152 62
-60 109 -80 187 -80 56 0 73 5 115 30 97 60 140 166 110 268 -18 59 -39 87
-87 116 -40 25 -132 28 -191 7z m172 -109 c41 -67 10 -181 -60 -218 -56 -31
-111 -21 -162 28 -83 79 -13 206 125 232 51 9 72 0 97 -42z"/>
<path d="M1920 2924 c-57 -54 -80 -97 -80 -154 0 -66 22 -97 82 -115 68 -20
124 -19 173 4 72 33 111 103 100 178 -12 82 -79 133 -175 133 -47 0 -55 -4
-100 -46z m161 -61 c18 -21 18 -95 0 -116 -34 -42 -124 -27 -149 25 -17 36 -3
62 46 87 47 24 86 26 103 4z"/>
<path d="M3341 2397 c-18 -23 -41 -85 -41 -113 0 -39 59 -94 102 -94 102 0
163 126 96 197 -18 19 -32 23 -84 23 -39 0 -66 -5 -73 -13z"/>
<path d="M2320 1880 c-107 -58 -171 -166 -154 -256 9 -50 63 -107 132 -141
117 -58 244 -29 300 67 23 38 27 57 27 120 0 64 -4 83 -30 129 -42 77 -83 104
-159 108 -53 3 -68 0 -116 -27z m142 -77 c85 -51 94 -193 16 -247 -74 -52
-208 23 -208 117 0 69 27 109 85 129 65 21 71 21 107 1z"/>
<path d="M1970 1488 c-57 -39 -75 -72 -75 -138 0 -79 23 -104 92 -102 54 2 86
22 121 73 19 28 23 44 20 86 -6 76 -28 103 -82 103 -28 0 -54 -8 -76 -22z"/>
</g>
</svg>
