<?xml version="1.0" standalone="no"?>
<!DOCTYPE svg PUBLIC "-//W3C//DTD SVG 20010904//EN"
 "http://www.w3.org/TR/2001/REC-SVG-20010904/DTD/svg10.dtd">
<svg version="1.0" xmlns="http://www.w3.org/2000/svg"
 width="512.000000pt" height="512.000000pt" viewBox="0 0 512.000000 512.000000"
 preserveAspectRatio="xMidYMid meet">

<g transform="translate(0.000000,512.000000) scale(0.100000,-0.100000)"
fill="#000000" stroke="none">
<path d="M2263 4975 c-204 -75 -364 -175 -485 -303 -121 -129 -172 -252 -171
-417 2 -170 52 -314 178 -506 122 -187 161 -291 152 -409 -6 -87 -38 -152
-111 -224 l-59 -59 49 7 c153 22 299 84 386 164 76 71 110 140 116 238 7 109
-17 192 -113 394 -130 274 -166 390 -167 550 -2 161 40 274 152 414 34 42 67
79 74 83 33 20 119 103 106 102 -8 0 -57 -15 -107 -34z"/>
<path d="M2600 4099 c-65 -13 -147 -56 -174 -92 -56 -74 -53 -155 12 -308 109
-255 94 -395 -55 -527 -35 -31 -61 -57 -59 -59 2 -2 41 10 86 26 251 92 362
245 321 443 -7 30 -39 108 -72 173 -86 167 -90 247 -13 314 19 17 34 33 34 36
0 7 -24 5 -80 -6z"/>
<path d="M3 2628 c18 -846 187 -1348 573 -1699 143 -130 365 -254 589 -329
l119 -40 892 0 892 0 118 41 c304 103 560 273 731 484 l67 83 91 7 c480 36
841 218 979 493 45 90 66 189 66 313 0 177 -44 294 -149 400 -122 122 -265
171 -497 171 l-131 0 5 174 5 174 -2178 0 -2178 0 6 -272z m4635 -423 c105
-32 151 -100 152 -226 0 -42 -7 -95 -15 -120 -53 -152 -234 -266 -519 -325
-43 -9 -79 -14 -82 -12 -2 3 7 38 21 79 49 141 81 289 110 494 9 60 21 113 28
117 22 14 250 9 305 -7z"/>
<path d="M435 408 c12 -60 50 -122 94 -153 l43 -30 384 -3 384 -3 21 -40 c36
-72 -8 -69 905 -69 917 0 871 -4 903 71 l16 38 387 3 386 3 43 30 c45 31 83
94 93 153 l5 32 -1835 0 -1836 0 7 -32z"/>
</g>
</svg>
