<?xml version="1.0" standalone="no"?>
<!DOCTYPE svg PUBLIC "-//W3C//DTD SVG 20010904//EN"
 "http://www.w3.org/TR/2001/REC-SVG-20010904/DTD/svg10.dtd">
<svg version="1.0" xmlns="http://www.w3.org/2000/svg"
 width="200.000000pt" height="200.000000pt" viewBox="0 0 200.000000 200.000000"
 preserveAspectRatio="xMidYMid meet">
<metadata>
Created by potrace 1.14, written by Peter Selinger 2001-2017
</metadata>
<g transform="translate(0.000000,200.000000) scale(0.100000,-0.100000)"
fill="#000000" stroke="none">
<path d="M634 1769 c-53 -12 -117 -67 -137 -118 -13 -32 -26 -44 -63 -61 -45
-19 -49 -20 -91 -4 -104 40 -242 -15 -294 -119 -40 -77 -35 -181 11 -247 13
-18 18 -43 17 -85 0 -33 5 -70 11 -82 7 -12 12 -36 12 -53 0 -43 25 -87 60
-105 17 -9 30 -22 30 -31 0 -25 47 -64 77 -64 16 0 39 -11 58 -28 16 -16 232
-145 478 -287 367 -211 455 -258 485 -257 51 0 646 342 673 387 17 27 19 53
19 243 0 168 -3 219 -15 242 -11 20 -63 56 -194 132 -152 87 -179 106 -175
123 3 11 -4 38 -16 60 -11 21 -20 48 -20 60 0 74 -115 140 -182 104 -17 -9
-25 -6 -47 15 -39 38 -90 44 -141 17 l-42 -21 -56 34 c-31 18 -66 36 -77 40
-11 3 -26 20 -34 37 -25 56 -109 87 -162 59 -14 -8 -33 -7 -71 5 -57 17 -56
17 -114 4z m126 -47 c34 -17 36 -17 68 1 39 23 73 17 108 -18 48 -48 23 -127
-47 -150 -23 -8 -35 -20 -40 -40 -5 -15 -19 -40 -33 -54 -23 -24 -24 -30 -14
-66 9 -33 7 -47 -7 -80 -10 -22 -17 -56 -16 -75 1 -19 -3 -41 -8 -49 -7 -11 0
-19 31 -34 25 -12 46 -33 56 -53 9 -19 22 -34 30 -34 21 0 72 -56 72 -79 0
-18 6 -21 40 -21 104 0 163 -89 122 -183 -18 -40 -66 -77 -99 -77 -5 0 -15
-16 -22 -36 -18 -50 -66 -70 -115 -50 -39 16 -56 42 -56 85 0 18 -8 35 -20 44
-11 7 -27 30 -35 50 -8 20 -21 37 -27 37 -20 0 -58 42 -58 65 0 36 -17 44 -61
28 -48 -16 -99 -6 -134 27 -18 17 -25 18 -47 8 -14 -7 -31 -27 -37 -44 -7 -19
-25 -39 -44 -49 -18 -9 -44 -24 -60 -33 -24 -15 -30 -16 -55 -2 -17 10 -28 26
-30 43 -2 15 -10 27 -17 27 -8 0 -26 11 -41 23 -21 19 -28 34 -29 68 -1 25 -7
54 -14 66 -13 25 -14 82 -2 102 6 9 -1 27 -21 55 -51 73 -57 148 -18 226 50
99 179 142 278 93 l39 -19 27 23 c15 13 40 23 55 23 24 0 30 6 40 40 32 107
146 160 241 112z m544 -149 c9 -10 23 -27 31 -38 13 -19 14 -19 32 -2 22 19
83 23 114 7 23 -13 49 -61 49 -92 0 -13 7 -32 15 -42 53 -70 -40 -145 -99 -81
-12 13 -35 29 -50 35 -23 8 -32 7 -53 -10 -49 -38 -123 -13 -137 47 -4 14 -16
38 -27 51 -46 59 -7 142 69 142 23 0 45 -7 56 -17z m581 -527 c0 -12 -81 -64
-265 -169 -199 -115 -271 -161 -287 -187 -22 -31 -23 -43 -23 -202 l0 -169
-22 3 c-23 3 -23 6 -28 178 -6 194 -9 204 -71 239 -28 16 -36 26 -32 41 7 25
9 25 58 0 74 -38 87 -33 380 135 149 85 274 154 280 152 5 -2 10 -11 10 -21z"/>
</g>
</svg>
