<?xml version="1.0" standalone="no"?>
<!DOCTYPE svg PUBLIC "-//W3C//DTD SVG 20010904//EN"
 "http://www.w3.org/TR/2001/REC-SVG-20010904/DTD/svg10.dtd">
<svg version="1.0" xmlns="http://www.w3.org/2000/svg"
 width="512.000000pt" height="512.000000pt" viewBox="0 0 512.000000 512.000000"
 preserveAspectRatio="xMidYMid meet">
<metadata>
Created by potrace 1.14, written by Peter Selinger 2001-2017
</metadata>
<g transform="translate(0.000000,512.000000) scale(0.100000,-0.100000)"
fill="#000000" stroke="none">
<path d="M2840 4709 c-571 -58 -1016 -164 -1347 -319 -88 -42 -103 -52 -103
-72 0 -17 39 -65 133 -164 72 -77 152 -162 177 -190 58 -63 190 -244 190 -260
0 -27 -578 -628 -649 -675 -102 -67 -168 -26 -329 201 -155 218 -228 278 -465
381 -130 56 -265 89 -371 89 l-69 0 6 -137 c13 -269 92 -527 222 -723 59 -89
179 -199 266 -245 38 -20 69 -39 69 -43 0 -5 -24 -19 -52 -34 -306 -151 -508
-578 -508 -1075 l0 -73 58 0 c104 0 246 43 417 127 193 95 274 167 414 366
104 147 163 208 223 232 l48 18 52 -27 c59 -29 125 -83 484 -400 277 -244 380
-327 532 -427 233 -155 393 -225 614 -269 l57 -11 -19 -54 c-48 -140 -160
-329 -260 -440 -33 -36 -60 -69 -60 -74 0 -30 176 -28 334 4 222 45 412 123
595 245 204 137 331 295 401 499 l25 73 125 72 c487 278 924 735 1039 1086 31
94 29 237 -4 336 -52 153 -158 343 -296 526 -82 109 -438 464 -559 557 -99 77
-261 187 -342 234 -27 16 -78 64 -121 115 -153 179 -442 443 -573 522 -56 34
-62 35 -164 37 -58 0 -143 -3 -190 -8z m1529 -1818 c51 -26 114 -100 129 -149
58 -195 -84 -376 -282 -360 -72 6 -112 24 -162 75 -77 76 -102 180 -68 280 24
70 66 118 137 153 58 30 67 31 135 26 42 -3 89 -14 111 -25z"/>
</g>
</svg>
