<?xml version="1.0" standalone="no"?>
<!DOCTYPE svg PUBLIC "-//W3C//DTD SVG 20010904//EN"
 "http://www.w3.org/TR/2001/REC-SVG-20010904/DTD/svg10.dtd">
<svg version="1.0" xmlns="http://www.w3.org/2000/svg"
 width="200.000000pt" height="200.000000pt" viewBox="0 0 200.000000 200.000000"
 preserveAspectRatio="xMidYMid meet">
<metadata>
Created by potrace 1.14, written by Peter Selinger 2001-2017
</metadata>
<g transform="translate(0.000000,200.000000) scale(0.100000,-0.100000)"
fill="#000000" stroke="none">
<path d="M1055 1854 c-71 -25 -175 -60 -230 -76 -376 -116 -474 -151 -479
-174 -3 -12 -3 -29 0 -38 5 -12 -10 -23 -58 -45 -68 -30 -96 -61 -105 -114 -5
-34 28 -203 77 -397 16 -63 54 -216 85 -340 31 -124 67 -260 81 -303 31 -94 9
-82 346 -195 190 -64 230 -74 250 -65 13 6 49 15 81 21 84 16 477 157 582 209
115 57 130 71 129 126 -2 77 -5 112 -14 132 -5 11 -28 108 -50 215 -56 263
-146 652 -168 722 -16 55 -22 61 -134 151 -65 51 -131 112 -147 134 -31 43
-81 83 -103 83 -7 0 -71 -21 -143 -46z m189 -39 c19 -25 23 -36 14 -39 -7 -2
-53 -16 -102 -31 -95 -28 -255 -95 -256 -107 0 -3 86 22 192 58 l191 64 109
-81 c60 -45 112 -89 117 -98 13 -25 83 -339 79 -353 -2 -6 -32 -19 -65 -29
l-61 -17 -34 57 c-47 79 -84 96 -213 96 -85 0 -106 -3 -142 -23 -107 -57 -152
-128 -162 -256 l-6 -79 -85 -23 -85 -23 -170 40 c-210 49 -233 56 -244 77 -14
26 -91 326 -91 354 0 14 8 32 18 40 24 22 91 48 97 39 2 -5 -9 -14 -25 -21
-33 -14 -40 -36 -12 -44 158 -45 311 -70 329 -53 19 19 -89 148 -155 185 -40
22 -66 16 -37 -8 15 -12 12 -30 -5 -30 -7 0 -30 53 -30 71 0 18 68 42 267 95
114 31 220 62 236 70 26 14 284 104 298 104 4 0 19 -16 33 -35z m57 -505 c126
-35 161 -248 63 -378 -24 -31 -79 -72 -96 -72 -4 0 -10 16 -14 36 -7 38 12 85
44 111 14 11 12 25 -19 125 -19 61 -39 113 -46 115 -7 3 -25 -23 -42 -61 -16
-36 -33 -66 -36 -66 -4 0 -26 14 -50 30 -51 35 -55 36 -55 13 0 -27 48 -176
63 -197 8 -11 32 -22 57 -25 38 -5 44 -10 57 -44 18 -45 12 -55 -39 -63 -90
-15 -239 73 -224 132 5 17 2 24 -9 24 -11 0 -15 12 -15 48 0 104 50 201 124
239 77 40 166 53 237 33z m308 -157 c27 -100 141 -576 139 -578 -6 -5 -615
-204 -668 -219 -30 -8 -77 -17 -105 -21 -73 -9 -92 -15 -74 -25 42 -24 259 30
682 170 121 39 180 55 182 47 2 -7 6 -30 7 -52 l3 -40 -265 -107 c-339 -137
-404 -158 -510 -164 -77 -4 -93 -2 -170 26 -47 17 -140 49 -207 70 -67 22
-126 46 -130 53 -8 12 -42 147 -38 147 1 0 56 -23 121 -51 132 -57 251 -86
309 -75 20 4 35 9 33 11 -2 3 -47 13 -100 24 -52 10 -158 44 -234 74 l-139 56
-33 123 c-41 158 -86 368 -79 375 3 3 34 -4 69 -16 79 -25 289 -71 330 -71 17
0 65 9 107 21 l77 21 61 -60 c48 -49 71 -64 118 -77 176 -52 341 71 363 268
l7 62 60 22 c33 12 63 22 67 22 4 1 12 -16 17 -36z"/>
<path d="M1487 839 c-10 -6 -25 -8 -33 -5 -24 9 -28 -40 -10 -126 17 -84 39
-133 57 -122 6 3 7 19 3 36 -5 28 -4 30 12 23 60 -25 73 -28 90 -21 16 6 8 13
-42 42 l-61 34 30 58 c18 35 28 65 24 75 -7 19 -43 22 -70 6z"/>
<path d="M1304 766 c-19 -49 25 -183 68 -210 27 -17 51 14 51 66 0 80 -46 179
-71 153 -3 -3 2 -29 10 -58 9 -28 19 -68 23 -87 11 -64 -22 -6 -39 67 -16 72
-31 97 -42 69z"/>
<path d="M1199 719 c-18 -34 -6 -115 21 -144 50 -53 92 -10 71 73 -22 84 -66
118 -92 71z"/>
<path d="M948 703 c-25 -4 -28 -9 -28 -41 1 -49 51 -193 72 -206 27 -16 32 0
14 44 -21 53 -21 59 10 70 34 13 25 36 -13 33 -24 -2 -32 2 -37 20 -9 34 -8
35 28 47 19 6 40 18 46 26 11 12 6 14 -26 13 -22 -1 -51 -4 -66 -6z"/>
</g>
</svg>
