<?xml version="1.0" standalone="no"?>
<!DOCTYPE svg PUBLIC "-//W3C//DTD SVG 20010904//EN"
 "http://www.w3.org/TR/2001/REC-SVG-20010904/DTD/svg10.dtd">
<svg version="1.0" xmlns="http://www.w3.org/2000/svg"
 width="200.000000pt" height="200.000000pt" viewBox="0 0 200.000000 200.000000"
 preserveAspectRatio="xMidYMid meet">
<metadata>
Created by potrace 1.14, written by Peter Selinger 2001-2017
</metadata>
<g transform="translate(0.000000,200.000000) scale(0.100000,-0.100000)"
fill="#000000" stroke="none">
<path d="M825 1894 c-248 -27 -434 -96 -486 -180 l-21 -34 37 -647 c20 -357
38 -664 41 -683 11 -73 163 -179 309 -215 151 -37 308 -44 465 -20 109 16 185
40 270 86 65 34 150 117 150 146 0 10 18 314 41 676 40 648 41 658 22 690 -40
69 -172 129 -361 163 -85 15 -385 27 -467 18z m400 -55 c113 -15 222 -45 292
-79 107 -53 130 -107 69 -165 -135 -127 -643 -176 -971 -94 -149 38 -245 98
-245 154 0 73 165 152 385 184 87 12 381 13 470 0z m-807 -313 c20 -14 71 -36
113 -50 299 -100 791 -81 1016 38 37 20 67 35 68 33 1 -1 -11 -208 -26 -460
-23 -394 -29 -461 -44 -477 -9 -10 -52 -37 -94 -59 -274 -142 -672 -145 -916
-5 -119 68 -106 20 -131 462 -12 213 -25 422 -28 465 -3 42 -3 77 0 77 2 0 21
-11 42 -24z m264 -1092 c193 -58 471 -49 666 20 l42 15 0 -124 0 -124 -54 -20
c-195 -73 -537 -67 -711 13 l-55 25 0 117 c0 107 1 116 18 109 9 -5 52 -18 94
-31z"/>
<path d="M1055 1233 c-225 -73 -216 -71 -248 -33 l-27 31 -137 -21 c-76 -12
-141 -24 -145 -28 -4 -4 -8 -52 -9 -106 l-3 -100 39 -33 c77 -66 262 -107 485
-106 264 1 439 48 503 135 17 23 18 31 7 57 -6 16 -22 37 -35 45 -13 9 -67 61
-121 116 -65 67 -104 100 -118 99 -12 -1 -97 -26 -191 -56z m265 -43 c40 -44
71 -82 69 -84 -10 -9 -312 -166 -314 -164 -32 41 -145 221 -142 225 5 5 296
102 308 103 4 0 39 -36 79 -80z m-495 -55 l57 -70 -108 -21 c-60 -11 -123 -23
-141 -27 -31 -6 -32 -5 -73 70 -22 42 -39 77 -37 79 3 3 240 42 243 40 1 -1
27 -32 59 -71z m170 -112 c36 -54 65 -104 65 -110 0 -16 -22 -16 -85 0 l-50
13 -3 97 c-1 53 0 97 2 97 3 0 35 -44 71 -97z m410 26 c9 -40 -17 -68 -95
-103 -86 -39 -227 -61 -218 -35 3 10 283 168 300 169 3 0 9 -14 13 -31z m-515
-77 l0 -69 -62 9 c-92 12 -220 60 -204 75 4 5 210 46 259 52 4 1 7 -30 7 -67z"/>
<path d="M476 818 c10 -153 36 -195 151 -238 254 -95 565 -88 772 17 76 39 98
84 107 222 l7 103 -39 -25 c-52 -34 -194 -74 -312 -88 -126 -15 -375 -6 -472
16 -84 20 -148 45 -191 76 l-29 21 6 -104z"/>
</g>
</svg>
