<?xml version="1.0" standalone="no"?>
<!DOCTYPE svg PUBLIC "-//W3C//DTD SVG 20010904//EN"
 "http://www.w3.org/TR/2001/REC-SVG-20010904/DTD/svg10.dtd">
<svg version="1.0" xmlns="http://www.w3.org/2000/svg"
 width="1024.000000pt" height="1024.000000pt" viewBox="0 0 1024.000000 1024.000000"
 preserveAspectRatio="xMidYMid meet">
<metadata>
Created by potrace 1.14, written by Peter Selinger 2001-2017
</metadata>
<g transform="translate(0.000000,1024.000000) scale(0.100000,-0.100000)"
fill="#000000" stroke="none">
<path d="M4340 9771 c0 -5 13 -46 30 -90 45 -122 118 -378 150 -525 147 -667
75 -1203 -223 -1658 -193 -297 -446 -541 -1072 -1033 -622 -490 -837 -677
-1088 -950 -438 -476 -675 -900 -812 -1455 -174 -709 -110 -1416 185 -2015
131 -267 269 -462 485 -683 376 -386 859 -671 1480 -871 165 -54 434 -126 441
-118 3 2 -31 24 -73 49 -207 121 -428 321 -588 534 -183 243 -333 576 -399
884 -44 209 -51 283 -50 535 0 267 17 402 75 629 90 348 270 707 509 1016 69
89 355 390 370 390 4 0 -4 -39 -17 -87 -199 -741 -2 -1405 484 -1635 138 -65
215 -81 388 -81 137 0 160 3 265 32 309 85 299 83 450 88 112 4 166 1 235 -12
326 -61 585 -288 712 -625 66 -173 88 -409 59 -626 -55 -415 -246 -706 -593
-901 -35 -19 -63 -36 -63 -38 0 -1 40 6 89 16 343 70 721 203 1001 352 451
240 831 568 1136 979 557 752 805 1797 624 2631 -68 313 -192 591 -441 984
-307 486 -378 616 -434 793 -97 311 -62 622 111 988 l53 113 -57 -6 c-333 -39
-590 -150 -772 -334 -164 -166 -261 -370 -316 -666 -17 -87 -19 -155 -20 -510
0 -455 -1 -458 -70 -604 -137 -291 -411 -471 -718 -471 -378 0 -678 297 -652
646 14 195 85 333 279 547 61 67 137 157 170 201 287 387 425 894 377 1377
-83 816 -635 1562 -1607 2168 -87 54 -93 56 -93 42z"/>
</g>
</svg>
