<?xml version="1.0" standalone="no"?>
<!DOCTYPE svg PUBLIC "-//W3C//DTD SVG 20010904//EN"
 "http://www.w3.org/TR/2001/REC-SVG-20010904/DTD/svg10.dtd">
<svg version="1.0" xmlns="http://www.w3.org/2000/svg"
 width="200.000000pt" height="200.000000pt" viewBox="0 0 200.000000 200.000000"
 preserveAspectRatio="xMidYMid meet">
<metadata>
Created by potrace 1.14, written by Peter Selinger 2001-2017
</metadata>
<g transform="translate(0.000000,200.000000) scale(0.100000,-0.100000)"
fill="#000000" stroke="none">
<path d="M1677 1679 c-9 -5 -26 -27 -37 -47 -38 -72 -44 -76 -118 -77 -53 -1
-81 -7 -124 -28 -52 -26 -76 -47 -151 -138 -23 -29 -29 -32 -38 -19 -9 13 -10
13 -6 0 2 -8 12 -14 21 -14 64 6 -86 -81 -209 -121 -44 -14 -125 -30 -180 -35
-217 -22 -300 -52 -445 -161 -186 -140 -270 -315 -211 -439 68 -146 248 -286
418 -326 99 -23 255 -14 352 20 250 88 512 322 750 671 71 104 85 120 107 117
13 -2 24 2 24 8 0 6 -5 8 -10 5 -6 -3 -19 -3 -30 0 -18 6 -20 15 -20 96 0 86
-15 148 -38 163 -9 5 -99 -202 -90 -209 2 -1 12 -7 23 -13 18 -10 17 -11 -12
-12 -37 0 -67 25 -57 49 3 9 8 57 11 106 4 70 1 94 -10 110 -15 19 -16 19 -55
-8 -22 -16 -63 -53 -92 -83 -56 -59 -64 -62 -98 -38 -29 20 -28 32 1 27 20 -4
29 7 76 98 l54 102 -39 -7 c-45 -9 -70 -23 -140 -83 -28 -23 -54 -40 -57 -37
-8 9 98 99 140 119 35 17 97 24 108 13 7 -6 -51 -127 -91 -190 -13 -21 -24
-41 -24 -45 0 -4 33 25 73 64 87 85 132 112 154 90 20 -20 27 -120 14 -191 -7
-40 -8 -63 -1 -70 7 -7 10 -4 10 10 0 19 62 186 79 213 14 22 40 5 61 -41 15
-32 20 -66 20 -130 0 -48 4 -89 8 -92 5 -3 13 32 19 77 17 123 -4 204 -68 272
-28 30 -28 33 -19 89 5 32 18 73 29 92 20 33 20 34 1 44 -24 13 -60 12 -83 -1z"/>
</g>
</svg>
