<?xml version="1.0" standalone="no"?>
<!DOCTYPE svg PUBLIC "-//W3C//DTD SVG 20010904//EN"
 "http://www.w3.org/TR/2001/REC-SVG-20010904/DTD/svg10.dtd">
<svg version="1.0" xmlns="http://www.w3.org/2000/svg"
 width="200.000000pt" height="200.000000pt" viewBox="0 0 200.000000 200.000000"
 preserveAspectRatio="xMidYMid meet">
<metadata>
Created by potrace 1.14, written by Peter Selinger 2001-2017
</metadata>
<g transform="translate(0.000000,200.000000) scale(0.100000,-0.100000)"
fill="#000000" stroke="none">
<path d="M976 1838 c-30 -85 -134 -286 -275 -533 -241 -419 -289 -551 -262
-725 30 -194 130 -338 286 -416 171 -84 379 -84 550 0 180 90 288 272 288 491
0 161 -42 263 -291 695 -135 234 -213 388 -248 488 -10 28 -21 52 -24 52 -3 0
-14 -24 -24 -52z m-325 -1250 c57 -171 197 -292 374 -323 52 -9 63 -14 45 -18
-99 -23 -197 -13 -289 28 -170 77 -252 282 -190 477 l23 73 8 -87 c4 -48 17
-115 29 -150z"/>
</g>
</svg>
